<svg width="7" height="8" viewBox="0 0 7 8" fill="none" xmlns="http://www.w3.org/2000/svg">
<path d="M3.22949 7.0898C3.08549 7.0898 2.94076 7.041 2.82174 6.9413L0.91207 5.33891C0.64355 5.11346 0.60853 4.71312 0.83388 4.4446C1.05934 4.17597 1.45979 4.14127 1.7282 4.36631L3.63787 5.96874C3.90649 6.1942 3.94151 6.5945 3.71616 6.8631C3.59058 7.0128 3.41061 7.0898 3.22949 7.0898Z" fill="#6C707E"/>
<path d="M5.57304 6.2372C5.53643 6.2372 5.4994 6.2341 5.46206 6.2275C5.11673 6.1666 4.8863 5.83732 4.94713 5.4921L5.38006 3.03704C5.441 2.69192 5.76993 2.46107 6.1155 2.52212C6.4608 2.58295 6.6912 2.9123 6.6304 3.25753L6.1975 5.71259C6.1432 6.0206 5.87541 6.2372 5.57304 6.2372Z" fill="#6C707E"/>
<path d="M1.75307 3.03249C1.49376 3.03249 1.25031 2.87242 1.15647 2.61469C1.0366 2.28523 1.20641 1.92097 1.53586 1.8011L3.87857 0.948463C4.20771 0.828703 4.57229 0.998403 4.69205 1.32786C4.81203 1.65732 4.64212 2.02158 4.31266 2.14145L1.97006 2.99408C1.89844 3.02011 1.82512 3.03249 1.75307 3.03249Z" fill="#6C707E"/>
</svg>
