<svg width="16" height="16" viewBox="0 0 16 16" fill="none" xmlns="http://www.w3.org/2000/svg">
<path d="M14.2825 5.92827L8.55334 1.12109C8.28472 0.89574 8.2497 0.495291 8.47505 0.226774C8.70072 -0.041849 9.10095 -0.0767627 9.36937 0.148483L15.0985 4.95577C15.3671 5.18112 15.4021 5.58157 15.1768 5.85009C15.0512 5.99969 14.8712 6.07681 14.6902 6.07681C14.5462 6.07681 14.4015 6.02815 14.2825 5.92827Z" fill="#CED0D6"/>
<path d="M6.27496 16C6.01469 16 5.77062 15.8388 5.67751 15.5797C5.55891 15.2498 5.73031 14.8862 6.06019 14.7676L13.177 12.2097C13.5066 12.0909 13.8705 12.2623 13.9891 12.5923C14.1077 12.9222 13.9363 13.2858 13.6064 13.4044L6.48962 15.9623C6.41874 15.9879 6.34627 16 6.27496 16Z" fill="#CED0D6"/>
<path d="M0.635684 11.2658C0.599395 11.2658 0.562789 11.2628 0.52576 11.2562C0.180326 11.196 -0.0507382 10.8671 0.00956718 10.5217L1.30825 3.08345C1.36855 2.73813 1.69759 2.50706 2.0427 2.56726C2.38814 2.62757 2.6192 2.95639 2.55889 3.30172L1.26021 10.7401C1.20647 11.0486 0.938375 11.2658 0.635684 11.2658Z" fill="#CED0D6"/>
<path d="M3.84403 5.42996C3.80743 5.42996 3.7704 5.42679 3.73305 5.42023C3.38783 5.3594 3.15729 5.03015 3.21813 4.68482L3.65106 2.22976C3.71189 1.88454 4.04082 1.65379 4.38646 1.71484C4.73168 1.77567 4.96222 2.10492 4.90139 2.45025L4.46846 4.90531C4.41418 5.21329 4.1463 5.42996 3.84403 5.42996Z" fill="#CED0D6"/>
<path d="M2.54536 12.795C2.50875 12.795 2.47172 12.7919 2.43437 12.7853C2.08915 12.7244 1.85862 12.3951 1.91945 12.0499L2.35238 9.59494C2.41321 9.24962 2.74235 9.01961 3.08779 9.08002C3.43301 9.14096 3.66354 9.47021 3.60271 9.81543L3.16978 12.2704C3.11551 12.5784 2.84762 12.795 2.54536 12.795Z" fill="#CED0D6"/>
<path d="M8.52817 3.72459C8.38418 3.72459 8.23944 3.67592 8.12042 3.57604L6.21075 1.97372C5.94213 1.74837 5.90711 1.34803 6.13246 1.0794C6.35792 0.810783 6.75836 0.775869 7.02678 1.00111L8.93655 2.60354C9.20517 2.82889 9.24019 3.22924 9.01484 3.49786C8.88926 3.64746 8.7093 3.72459 8.52817 3.72459Z" fill="#CED0D6"/>
<path d="M14.2573 8.53188C14.1133 8.53188 13.9686 8.48311 13.8495 8.38334L11.9398 6.78091C11.6711 6.55556 11.6361 6.15511 11.8615 5.88659C12.0871 5.61797 12.4874 5.58306 12.7558 5.8083L14.6656 7.41073C14.9342 7.63608 14.9692 8.03653 14.7438 8.30505C14.6183 8.45475 14.4384 8.53188 14.2573 8.53188Z" fill="#CED0D6"/>
<path d="M11.4821 11.8398C11.2229 11.8398 10.9794 11.6796 10.8856 11.422C10.7656 11.0925 10.9355 10.7282 11.2649 10.6084L13.6075 9.75565C13.9371 9.63568 14.3013 9.8057 14.4211 10.1349C14.541 10.4644 14.3711 10.8288 14.0418 10.9485L11.6992 11.8013C11.6275 11.8274 11.5542 11.8398 11.4821 11.8398Z" fill="#CED0D6"/>
<path d="M7.22949 11.0898C7.08549 11.0898 6.94076 11.041 6.82174 10.9413L4.91207 9.33891C4.64355 9.11346 4.60853 8.71312 4.83388 8.4446C5.05934 8.17597 5.45979 8.14127 5.7282 8.36631L7.63787 9.96874C7.90649 10.1942 7.94151 10.5945 7.71616 10.8631C7.59058 11.0128 7.41061 11.0898 7.22949 11.0898Z" fill="#CED0D6"/>
<path d="M9.57304 10.2372C9.53643 10.2372 9.4994 10.2341 9.46206 10.2275C9.11673 10.1666 8.8863 9.83732 8.94713 9.4921L9.38006 7.03704C9.441 6.69192 9.76993 6.46107 10.1155 6.52212C10.4608 6.58295 10.6912 6.9123 10.6304 7.25753L10.1975 9.71259C10.1432 10.0206 9.87541 10.2372 9.57304 10.2372Z" fill="#CED0D6"/>
<path d="M5.75307 7.03249C5.49376 7.03249 5.25031 6.87242 5.15647 6.61469C5.0366 6.28523 5.20641 5.92097 5.53586 5.8011L7.87857 4.94846C8.20771 4.8287 8.57229 4.9984 8.69205 5.32786C8.81203 5.65732 8.64212 6.02158 8.31266 6.14145L5.97006 6.99408C5.89844 7.02011 5.82512 7.03249 5.75307 7.03249Z" fill="#CED0D6"/>
<path d="M4.45438 14.3977C4.19507 14.3977 3.95162 14.2375 3.85778 13.9798C3.73791 13.6504 3.90772 13.2861 4.23717 13.1663L6.57977 12.3136C6.90923 12.1935 7.2736 12.3635 7.39336 12.6929C7.51323 13.0223 7.34343 13.3867 7.01397 13.5064L4.67137 14.3592C4.59975 14.3853 4.52643 14.3977 4.45438 14.3977Z" fill="#CED0D6"/>
</svg>
