<svg width="20" height="20" viewBox="0 0 20 20" fill="none" xmlns="http://www.w3.org/2000/svg">
<path d="M17.8531 7.41034L10.6917 1.40136C10.3559 1.11967 10.3121 0.619114 10.5938 0.283468C10.8759 -0.0523114 11.3762 -0.0959534 11.7117 0.185604L18.8731 6.19471C19.2089 6.4764 19.2527 6.97696 18.971 7.31261C18.814 7.49961 18.589 7.59602 18.3628 7.59602C18.1828 7.59602 18.0018 7.53518 17.8531 7.41034Z" fill="#6C707E"/>
<path d="M7.8437 20C7.51837 20 7.21328 19.7985 7.0969 19.4746C6.94865 19.0622 7.16289 18.6077 7.57524 18.4594L16.4712 15.2621C16.8833 15.1137 17.3381 15.3279 17.4863 15.7404C17.6346 16.1528 17.4203 16.6073 17.008 16.7555L8.11204 19.9529C8.02343 19.9849 7.93284 20 7.8437 20Z" fill="#6C707E"/>
<path d="M0.794606 14.0823C0.749244 14.0823 0.703486 14.0785 0.657199 14.0703C0.225408 13.995 -0.0634227 13.5838 0.0119589 13.1522L1.63531 3.85432C1.71069 3.42266 2.12198 3.13383 2.55338 3.20908C2.98517 3.28446 3.274 3.69549 3.19862 4.12715L1.57527 13.4251C1.50809 13.8108 1.17297 14.0823 0.794606 14.0823Z" fill="#6C707E"/>
<path d="M4.80504 6.78745C4.75928 6.78745 4.71299 6.78348 4.66631 6.77528C4.23478 6.69924 3.94661 6.28768 4.02265 5.85602L4.56382 2.7872C4.63986 2.35567 5.05102 2.06723 5.48307 2.14354C5.9146 2.21958 6.20277 2.63114 6.12673 3.0628L5.58557 6.13163C5.51772 6.5166 5.18287 6.78745 4.80504 6.78745Z" fill="#6C707E"/>
<path d="M3.1817 15.9938C3.13594 15.9938 3.08965 15.9898 3.04297 15.9816C2.61144 15.9055 2.32327 15.4939 2.39932 15.0624L2.94048 11.9937C3.01652 11.562 3.42795 11.2745 3.85974 11.35C4.29126 11.4262 4.57943 11.8378 4.50339 12.2693L3.96223 15.338C3.89439 15.723 3.55953 15.9938 3.1817 15.9938Z" fill="#6C707E"/>
<path d="M10.6602 4.65574C10.4802 4.65574 10.2993 4.59491 10.1505 4.47006L7.76344 2.46716C7.42766 2.18547 7.38389 1.68504 7.66558 1.34926C7.9474 1.01348 8.44796 0.969845 8.78347 1.2514L11.1707 3.25444C11.5065 3.53612 11.5502 4.03655 11.2686 4.37233C11.1116 4.55933 10.8866 4.65574 10.6602 4.65574Z" fill="#6C707E"/>
<path d="M17.8216 10.6648C17.6416 10.6648 17.4607 10.6039 17.3119 10.4792L14.9247 8.47613C14.5889 8.19444 14.5451 7.69388 14.8268 7.35824C15.1089 7.02246 15.6092 6.97881 15.9447 7.26037L18.3319 9.26341C18.6677 9.5451 18.7115 10.0457 18.4298 10.3813C18.2728 10.5684 18.048 10.6648 17.8216 10.6648Z" fill="#6C707E"/>
<path d="M14.3526 14.7997C14.0286 14.7997 13.7243 14.5995 13.607 14.2775C13.457 13.8657 13.6694 13.4102 14.0811 13.2605L17.0093 12.1946C17.4214 12.0446 17.8766 12.2571 18.0263 12.6687C18.1763 13.0805 17.9639 13.536 17.5522 13.6857L14.624 14.7516C14.5344 14.7843 14.4428 14.7997 14.3526 14.7997Z" fill="#6C707E"/>
<path d="M9.03686 13.8622C8.85687 13.8622 8.67596 13.8013 8.52718 13.6767L6.14009 11.6736C5.80444 11.3918 5.76067 10.8914 6.04236 10.5557C6.32418 10.22 6.82474 10.1766 7.16026 10.4579L9.54734 12.4609C9.88312 12.7427 9.92689 13.2432 9.64521 13.5788C9.48823 13.7659 9.26327 13.8622 9.03686 13.8622Z" fill="#6C707E"/>
<path d="M11.9663 12.7966C11.9205 12.7966 11.8743 12.7926 11.8276 12.7844C11.3959 12.7082 11.1079 12.2967 11.1839 11.8651L11.7251 8.7963C11.8012 8.36491 12.2124 8.07634 12.6443 8.15265C13.076 8.22869 13.364 8.64038 13.288 9.07191L12.7468 12.1407C12.679 12.5257 12.3443 12.7966 11.9663 12.7966Z" fill="#6C707E"/>
<path d="M7.19134 8.79062C6.8672 8.79062 6.56289 8.59053 6.44559 8.26837C6.29575 7.85655 6.50801 7.40122 6.91983 7.25138L9.84821 6.18559C10.2596 6.03588 10.7154 6.24801 10.8651 6.65983C11.015 7.07165 10.8026 7.52699 10.3908 7.67682L7.46258 8.74261C7.37305 8.77515 7.2814 8.79062 7.19134 8.79062Z" fill="#6C707E"/>
<path d="M5.56797 17.9971C5.24383 17.9971 4.93953 17.7969 4.82222 17.4747C4.67239 17.063 4.88464 16.6076 5.29647 16.4579L8.22471 15.3919C8.63653 15.2418 9.092 15.4544 9.2417 15.8662C9.39154 16.2779 9.17928 16.7333 8.76746 16.883L5.83921 17.949C5.74968 17.9816 5.65803 17.9971 5.56797 17.9971Z" fill="#6C707E"/>
</svg>
