<svg width="9" height="8" viewBox="0 0 9 8" fill="none" xmlns="http://www.w3.org/2000/svg">
<path d="M4.03686 7.8622C3.85687 7.8622 3.67596 7.8013 3.52718 7.6767L1.14009 5.6736C0.804439 5.3918 0.760669 4.8914 1.04236 4.5557C1.32418 4.22 1.82474 4.1766 2.16026 4.4579L4.54734 6.4609C4.88312 6.7427 4.92689 7.2432 4.64521 7.5788C4.48823 7.7659 4.26327 7.8622 4.03686 7.8622Z" fill="#6C707E"/>
<path d="M6.9663 6.7966C6.9205 6.7966 6.8743 6.7926 6.8276 6.7844C6.3959 6.7082 6.1079 6.2967 6.1839 5.8651L6.7251 2.7963C6.8012 2.36491 7.2124 2.07634 7.6443 2.15265C8.076 2.22869 8.364 2.64038 8.288 3.07191L7.7468 6.1407C7.679 6.5257 7.3443 6.7966 6.9663 6.7966Z" fill="#6C707E"/>
<path d="M2.19134 2.79062C1.8672 2.79062 1.56289 2.59053 1.44559 2.26837C1.29575 1.85655 1.50801 1.40122 1.91983 1.25138L4.84821 0.185591C5.2596 0.0358807 5.7154 0.248011 5.8651 0.659831C6.015 1.07165 5.8026 1.52699 5.3908 1.67682L2.46258 2.74261C2.37305 2.77515 2.2814 2.79062 2.19134 2.79062Z" fill="#6C707E"/>
</svg>
