<svg width="13" height="13" viewBox="0 0 13 13" fill="none" xmlns="http://www.w3.org/2000/svg">
<path d="M5.35199 13C5.04909 13 4.74461 12.8974 4.49424 12.6878L0.476942 9.31678C-0.0879263 8.8425 -0.161587 8.00031 0.312455 7.43544C0.786755 6.87034 1.62915 6.79736 2.19381 7.27075L6.21109 10.6417C6.77619 11.116 6.84985 11.9582 6.37578 12.5231C6.11161 12.838 5.73303 13 5.35199 13Z" fill="#6E6E6E"/>
<path d="M10.282 11.2066C10.205 11.2066 10.1271 11.1999 10.0486 11.1861C9.32213 11.0579 8.83737 10.3653 8.96535 9.63902L9.8761 4.47443C10.0043 3.74842 10.6962 3.26278 11.4231 3.3912C12.1496 3.51918 12.6343 4.21202 12.5064 4.93825L11.5956 10.1029C11.4815 10.7507 10.9181 11.2066 10.282 11.2066Z" fill="#6E6E6E"/>
<path d="M2.24613 4.46486C1.70063 4.46486 1.1885 4.12812 0.991109 3.58593C0.738929 2.89288 1.09615 2.12658 1.7892 1.87442L6.71746 0.0807838C7.40987 -0.171163 8.17682 0.185824 8.42876 0.878879C8.68115 1.57196 8.3237 2.33824 7.63064 2.59042L2.70262 4.38405C2.55193 4.43881 2.3977 4.46486 2.24613 4.46486Z" fill="#6E6E6E"/>
</svg>
