<svg width="13" height="13" viewBox="0 0 13 13" fill="none" xmlns="http://www.w3.org/2000/svg">
<path d="M11.6045 4.81672L6.94959 0.910887C6.73134 0.727789 6.70288 0.402424 6.88598 0.184254C7.06934 -0.0340022 7.39453 -0.0623696 7.61262 0.120642L12.2675 4.02656C12.4858 4.20966 12.5142 4.53503 12.3311 4.7532C12.2291 4.87475 12.0829 4.93741 11.9358 4.93741C11.8188 4.93741 11.7012 4.89787 11.6045 4.81672Z" fill="#6E6E6E"/>
<path d="M5.09841 13C4.88694 13 4.68863 12.869 4.61298 12.6585C4.51662 12.3904 4.65588 12.095 4.92391 11.9986L10.7063 9.92034C10.9741 9.82389 11.2698 9.96315 11.3661 10.2313C11.4625 10.4993 11.3232 10.7947 11.0552 10.8911L5.27283 12.9694C5.21523 12.9902 5.15635 13 5.09841 13Z" fill="#6E6E6E"/>
<path d="M0.516494 9.15349C0.487009 9.15349 0.457266 9.15099 0.42718 9.14567C0.146515 9.09675 -0.0412247 8.8295 0.00777331 8.54892L1.06295 2.50531C1.11195 2.22473 1.37929 2.03699 1.6597 2.0859C1.94036 2.1349 2.1281 2.40207 2.0791 2.68265L1.02392 8.72635C0.980256 8.97701 0.76243 9.15349 0.516494 9.15349Z" fill="#6E6E6E"/>
<path d="M3.12327 4.41184C3.09353 4.41184 3.06344 4.40926 3.0331 4.40393C2.75261 4.3545 2.5653 4.08699 2.61472 3.80641L2.96648 1.81168C3.01591 1.53118 3.28316 1.3437 3.564 1.3933C3.84449 1.44273 4.0318 1.71024 3.98237 1.99082L3.63062 3.98556C3.58652 4.23579 3.36886 4.41184 3.12327 4.41184Z" fill="#6E6E6E"/>
<path d="M2.0681 10.396C2.03835 10.396 2.00827 10.3934 1.97792 10.3881C1.69743 10.3385 1.51012 10.071 1.55955 9.79054L1.9113 7.79589C1.96073 7.51531 2.22816 7.32843 2.50882 7.37752C2.78931 7.42703 2.97662 7.69454 2.9272 7.97503L2.57544 9.96969C2.53134 10.2199 2.31369 10.396 2.0681 10.396Z" fill="#6E6E6E"/>
<path d="M6.92913 3.02623C6.81214 3.02623 6.69454 2.98669 6.59783 2.90554L5.04623 1.60365C4.82797 1.42055 4.79952 1.09527 4.98262 0.877018C5.1658 0.658762 5.49116 0.630395 5.70925 0.813407L7.26094 2.11538C7.4792 2.29848 7.50765 2.62376 7.32455 2.84201C7.22252 2.96356 7.0763 3.02623 6.92913 3.02623Z" fill="#6E6E6E"/>
<path d="M11.584 6.93215C11.467 6.93215 11.3494 6.89252 11.2527 6.81146L9.70104 5.50949C9.48279 5.32639 9.45433 5.00103 9.63743 4.78286C9.82079 4.5646 10.146 4.53623 10.3641 4.71924L11.9158 6.02122C12.134 6.20432 12.1625 6.52968 11.9794 6.74785C11.8773 6.86949 11.7312 6.93215 11.584 6.93215Z" fill="#6E6E6E"/>
<path d="M9.32918 9.61982C9.11858 9.61982 8.92078 9.48967 8.84453 9.28036C8.74705 9.01267 8.88511 8.71662 9.1527 8.61931L11.0561 7.92646C11.3239 7.82898 11.6198 7.96712 11.7171 8.23464C11.8146 8.50232 11.6765 8.79837 11.4089 8.89568L9.50558 9.58853C9.44738 9.60976 9.38781 9.61982 9.32918 9.61982Z" fill="#6E6E6E"/>
<path d="M5.87395 9.01044C5.75696 9.01044 5.63936 8.97081 5.54266 8.88984L3.99105 7.58786C3.77288 7.40468 3.74443 7.0794 3.92752 6.86123C4.11071 6.64297 4.43607 6.61478 4.65416 6.79762L6.20576 8.09959C6.42402 8.28278 6.45247 8.60806 6.26937 8.82623C6.16734 8.94786 6.02112 9.01044 5.87395 9.01044Z" fill="#6E6E6E"/>
<path d="M7.77809 8.31775C7.74835 8.31775 7.71826 8.31517 7.68792 8.30984C7.40734 8.26033 7.22011 7.99282 7.26954 7.71232L7.6213 5.71759C7.67081 5.43718 7.93806 5.24961 8.21881 5.29921C8.49939 5.34864 8.68662 5.61624 8.63719 5.89673L8.28543 7.89147C8.24134 8.1417 8.02377 8.31775 7.77809 8.31775Z" fill="#6E6E6E"/>
<path d="M4.67437 5.7139C4.46368 5.7139 4.26588 5.58384 4.18964 5.37443C4.09224 5.10675 4.23021 4.81078 4.49789 4.71339L6.40134 4.02063C6.66877 3.92332 6.96499 4.0612 7.0623 4.32888C7.15978 4.59657 7.02172 4.89253 6.75404 4.98993L4.85068 5.68269C4.79248 5.70384 4.73291 5.7139 4.67437 5.7139Z" fill="#6E6E6E"/>
<path d="M3.61918 11.6981C3.40849 11.6981 3.21069 11.568 3.13444 11.3586C3.03705 11.091 3.17502 10.7949 3.4427 10.6976L5.34606 10.0048C5.61375 9.90719 5.9098 10.0453 6.00711 10.313C6.1045 10.5806 5.96653 10.8767 5.69885 10.974L3.79549 11.6668C3.73729 11.6881 3.67772 11.6981 3.61918 11.6981Z" fill="#6E6E6E"/>
</svg>
